<svg xmlns="http://www.w3.org/2000/svg" viewBox="-371 321 456 560" enable-background="new -371 321 456 560">
    <path d="M9.8 618.5c.8 84.8 74.4 113 75.2 113.3-.6 2-11.8 40.2-38.8 79.7-23.3 34.1-47.6 68.1-85.7 68.8C-77 881-89 858-131.9 858c-42.9 0-56.3 21.5-91.8 22.9-36.8 1.4-64.9-36.9-88.4-70.9-48.1-69.5-84.8-196.5-35.5-282.2 24.5-42.6 68.3-69.5 115.9-70.2 36.2-.7 70.3 24.3 92.4 24.3 22.1 0 63.6-30.1 107.2-25.7 18.3.8 69.5 7.4 102.4 55.6-2.6 1.8-61.1 35.8-60.5 106.7m-70.4-208.1c19.6-23.7 32.7-56.6 29.1-89.4-28.2 1.1-62.3 18.8-82.5 42.4-18.1 21-34 54.5-29.7 86.6 31.4 2.5 63.5-15.9 83.1-39.6"/>
</svg>
