<svg xmlns="http://www.w3.org/2000/svg" viewBox="0 0 157.8 184" enable-background="new 0 0 157.8 184">
  <path d="M156.6 64.9c-2.8-15.2-9.5-28.5-20-39.9-4.4-4.8-9.4-9-14.9-12.5C111.5 6 100.3 1.9 88.2.5c-1.5-.2-3-.2-4.4-.5H73.4c-.1.3-.4.2-.5.2-2.7.2-5.4.5-8 1-19.5 3.7-35.4 13.2-47.8 28.6C7 42.4 1.4 56.9.2 73.1c-.6 7.8 0 15.6 1.7 23.3 1.3 5.7 3.2 11.2 5.7 16.5.2.4.4.9.7 1.3 4.2 8.3 9.6 15.7 16.4 22.1 3.6 3.4 7.4 6.4 11.5 9 12.7 8 26.5 12.3 41.5 12.4.9 0 1.2.2 1.2 1.2V184c.3-.1.4-.2.6-.2 15.1-7.1 29-16.1 41.3-27.3 2.5-2.2 4.8-4.6 7.1-7 1-1 1.9-2.1 2.9-3.1 1.5-1.6 2.8-3.4 4.2-5.1 1.6-1.9 3.1-4 4.5-6.1 3.2-4.6 6.1-9.4 8.5-14.5 1.2-2.6 2.4-5.2 3.4-7.8l.1-.1c2.8-7.2 4.6-14.7 5.5-22.4.3-2.7.5-5.4.7-8.1.3-5.9 0-11.7-1.1-17.4zm-84.5 26c-.1 6.8-2.7 12.6-7.7 17.3-.3.2-.5.5-.8.7-2.6 2-5.4 3.6-8.6 4.4-1.4.4-2.7.6-4.1.8-1.1.2-1.8-.4-2.2-1.4v-8.9c.5-1.1 1.5-1.4 2.6-1.6 5.1-1.2 8-4.2 8.9-9.3.1-.7.5-1.4 0-2.1H41.4c-.5 0-1.1 0-1.6-.2-1.6-.5-2.8-2-2.8-3.6V58.6c.7-1.8 1.8-3 3.8-3h27.4c1.8 0 3.2 1.1 3.7 2.9.2.5.2.9.2 1.4v31zm48.8-31v31c0 9.2-5.8 17.9-14.3 21.4l-.6.3c-.1 0-.2.1-.4.1-.1 0-.1.1-.2.1-1.8.5-3.6.9-5.4 1.2-1.4.2-2.5-.6-2.5-2v-3c0-1.8 0-3.5.1-5.3.5-1.2 1.6-1.4 2.7-1.6 5-1.1 8.1-4.4 8.8-9.4.1-.6.5-1.3 0-1.9H89.8c-2.4 0-4-1.7-4-4V58.4c.3-.1.3-.4.4-.6.8-1.4 1.9-2.1 3.6-2.1H117c1.8 0 3.2 1.1 3.8 2.9.1.3.1.8.1 1.3z"/>
</svg>
