<svg xmlns="http://www.w3.org/2000/svg" viewBox="-430.6 512.8 167.7 170.2" enable-background="new -430.6 512.8 167.7 170.2">
  <path d="M-262.9 637.1c0-7.7-1.9-14.9-5.3-21.2 1.4-6.2 2.2-12.6 2.2-19.2 0-45.2-35.7-81.8-79.8-81.8-6.5 0-12.7.8-18.7 2.3-6-2.8-12.6-4.3-19.7-4.3-25.7 0-46.5 20.6-46.5 46 0 8.5 2.3 16.4 6.4 23.2-.8 4.8-1.3 9.7-1.3 14.7 0 45.2 35.7 81.8 79.8 81.8 4.7 0 9.3-.4 13.8-1.2 6.7 3.7 14.4 5.8 22.6 5.8 25.7-.2 46.5-20.7 46.5-46.1zm-36.5-16.7c-.3 8.7-3.6 16.4-9.8 22.2-7.6 7.2-18.9 11.1-32.1 11.1h-2.4c-21.5-1-34.6-12.3-41.9-21.6-3.9-5-3-12.2 2-16.1 5-3.9 12.2-3 16.1 2 6.2 8 14.5 12.3 24.7 12.7 7.7.2 14.3-1.5 17.8-4.8 1.7-1.6 2.5-3.6 2.6-6.2v-.4c.3-5.3-1.3-7.4-21.4-12.6-1.1-.3-2.3-.6-3.4-.9-14.7-3.7-39.5-10-37.9-38.1v-.2c1.5-20.6 21.9-30.7 40.3-29.8l.9.1c15.5 2 28.3 8.4 39.1 19.6 4.4 4.6 4.3 11.8-.3 16.3-4.6 4.4-11.8 4.3-16.3-.3-7-7.2-15-11.3-25.1-12.7-5.2-.1-15.2 1.7-15.8 8.5-.3 5.6-.4 9 20.7 14.3 1.2.3 2.3.6 3.4.9 9.1 2.3 17.7 4.5 24.8 9 9.9 6.1 14.6 15.4 14 27z"/>
</svg>
